# xmcd CD database file
#
# Track frame offsets:
#	150
#	18218
#	33667
#	56457
#
# Disc length: 1089 seconds
#
# Revision: 1
# Processed by: cddbd v1.5.1PL0 Copyright (c) Steve Scherf et al.
# Submitted via: CDex 1.50beta10
#
DISCID=28043f04
DTITLE=Luxury Car - The Heart Of The Matter
DYEAR=2005
DGENRE=Electronic
TTITLE0=The Heart Of The Matter
TTITLE1=Out Of Focus
TTITLE2=The Miracle Hear
TTITLE3=In The Event
EXTD=YEAR: 2005
EXTT0=
EXTT1=
EXTT2=
EXTT3=
PLAYORDER=
